<svg width="32" height="32" viewBox="0 0 32 32" fill="none" xmlns="http://www.w3.org/2000/svg">
<path d="M2.66669 10.6667C2.66669 8.78113 2.66669 7.83832 3.25247 7.25253C3.83826 6.66675 4.78107 6.66675 6.66669 6.66675H25.3334C27.219 6.66675 28.1618 6.66675 28.7476 7.25253C29.3334 7.83832 29.3334 8.78113 29.3334 10.6667V12.3334C29.3334 12.8048 29.3334 13.0405 29.1869 13.187C29.0405 13.3334 28.8048 13.3334 28.3334 13.3334H3.66669C3.19528 13.3334 2.95958 13.3334 2.81313 13.187C2.66669 13.0405 2.66669 12.8048 2.66669 12.3334V10.6667Z" fill="white"/>
<path fill-rule="evenodd" clip-rule="evenodd" d="M2.66669 25.3333C2.66669 27.219 2.66669 28.1618 3.25247 28.7475C3.83826 29.3333 4.78107 29.3333 6.66669 29.3333H25.3334C27.219 29.3333 28.1618 29.3333 28.7476 28.7475C29.3334 28.1618 29.3334 27.219 29.3334 25.3333V17C29.3334 16.5286 29.3334 16.2929 29.1869 16.1464C29.0405 16 28.8048 16 28.3334 16H3.66669C3.19528 16 2.95958 16 2.81313 16.1464C2.66669 16.2929 2.66669 16.5286 2.66669 17V25.3333ZM9.33335 19.6667C9.33335 19.1953 9.33335 18.9596 9.4798 18.8131C9.62625 18.6667 9.86195 18.6667 10.3334 18.6667H13.6667C14.1381 18.6667 14.3738 18.6667 14.5202 18.8131C14.6667 18.9596 14.6667 19.1953 14.6667 19.6667V20.3333C14.6667 20.8047 14.6667 21.0404 14.5202 21.1869C14.3738 21.3333 14.1381 21.3333 13.6667 21.3333H10.3334C9.86195 21.3333 9.62625 21.3333 9.4798 21.1869C9.33335 21.0404 9.33335 20.8047 9.33335 20.3333V19.6667ZM9.4798 24.1464C9.33335 24.2929 9.33335 24.5286 9.33335 25V25.6667C9.33335 26.1381 9.33335 26.3738 9.4798 26.5202C9.62625 26.6667 9.86195 26.6667 10.3334 26.6667H13.6667C14.1381 26.6667 14.3738 26.6667 14.5202 26.5202C14.6667 26.3738 14.6667 26.1381 14.6667 25.6667V25C14.6667 24.5286 14.6667 24.2929 14.5202 24.1464C14.3738 24 14.1381 24 13.6667 24H10.3334C9.86195 24 9.62625 24 9.4798 24.1464ZM17.3334 19.6667C17.3334 19.1953 17.3334 18.9596 17.4798 18.8131C17.6262 18.6667 17.8619 18.6667 18.3334 18.6667H21.6667C22.1381 18.6667 22.3738 18.6667 22.5202 18.8131C22.6667 18.9596 22.6667 19.1953 22.6667 19.6667V20.3333C22.6667 20.8047 22.6667 21.0404 22.5202 21.1869C22.3738 21.3333 22.1381 21.3333 21.6667 21.3333H18.3334C17.8619 21.3333 17.6262 21.3333 17.4798 21.1869C17.3334 21.0404 17.3334 20.8047 17.3334 20.3333V19.6667ZM17.4798 24.1464C17.3334 24.2929 17.3334 24.5286 17.3334 25V25.6667C17.3334 26.1381 17.3334 26.3738 17.4798 26.5202C17.6262 26.6667 17.8619 26.6667 18.3334 26.6667H21.6667C22.1381 26.6667 22.3738 26.6667 22.5202 26.5202C22.6667 26.3738 22.6667 26.1381 22.6667 25.6667V25C22.6667 24.5286 22.6667 24.2929 22.5202 24.1464C22.3738 24 22.1381 24 21.6667 24H18.3334C17.8619 24 17.6262 24 17.4798 24.1464Z" fill="white"/>
<path d="M9.33331 4L9.33331 8" stroke="white" stroke-width="2" stroke-linecap="round"/>
<path d="M22.6667 4L22.6667 8" stroke="white" stroke-width="2" stroke-linecap="round"/>
</svg>
