<svg width="32" height="32" viewBox="0 0 32 32" fill="none" xmlns="http://www.w3.org/2000/svg">
<path d="M13.7431 9.62648C14.5992 7.49224 15.0272 6.42511 15.7227 6.27721C15.9055 6.23832 16.0945 6.23832 16.2774 6.27721C16.9728 6.42511 17.4009 7.49224 18.257 9.62648C18.7438 10.8402 18.9872 11.447 19.4427 11.8598C19.5705 11.9756 19.7092 12.0787 19.8568 12.1677C20.3833 12.485 21.0405 12.5438 22.3548 12.6616C24.5799 12.8608 25.6924 12.9605 26.0321 13.5948C26.1025 13.7262 26.1503 13.8684 26.1736 14.0156C26.2863 14.7263 25.4684 15.4704 23.8327 16.9585L23.3784 17.3718C22.6137 18.0675 22.2314 18.4154 22.0102 18.8495C21.8775 19.11 21.7886 19.3904 21.7469 19.6797C21.6774 20.162 21.7894 20.6666 22.0133 21.6759L22.0933 22.0365C22.4949 23.8466 22.6957 24.7516 22.4451 25.1965C22.2199 25.596 21.8052 25.8519 21.347 25.8737C20.837 25.8981 20.1184 25.3125 18.6811 24.1413C17.7341 23.3697 17.2606 22.9839 16.735 22.8332C16.2547 22.6954 15.7453 22.6954 15.265 22.8332C14.7394 22.9839 14.2659 23.3697 13.319 24.1413C11.8817 25.3125 11.163 25.8981 10.653 25.8737C10.1949 25.8519 9.78013 25.596 9.55498 25.1965C9.30432 24.7516 9.50512 23.8466 9.90671 22.0365L9.98672 21.6759C10.2107 20.6666 10.3226 20.162 10.2531 19.6797C10.2115 19.3904 10.1225 19.11 9.98984 18.8495C9.76868 18.4154 9.38632 18.0675 8.62159 17.3718L8.16736 16.9585C6.53164 15.4704 5.71378 14.7263 5.82641 14.0156C5.84974 13.8684 5.89758 13.7262 5.96794 13.5948C6.30767 12.9605 7.42018 12.8608 9.6452 12.6616C10.9596 12.5438 11.6168 12.485 12.1432 12.1677C12.2909 12.0787 12.4296 11.9756 12.5573 11.8598C13.0128 11.447 13.2562 10.8402 13.7431 9.62648Z" fill="white" stroke="white" stroke-width="2"/>
</svg>
